<svg width="72" height="72" viewBox="0 0 72 72" fill="none" xmlns="http://www.w3.org/2000/svg">
<circle cx="38.25" cy="36" r="31.5" fill="url(#paint0_linear_1_8536)"/>
<mask id="mask0_1_8536" style="mask-type:alpha" maskUnits="userSpaceOnUse" x="6" y="4" width="64" height="64">
<circle cx="38.25" cy="36" r="31.5" fill="#C4C4C4"/>
</mask>
<g mask="url(#mask0_1_8536)">
<rect x="40.5" width="38.25" height="38.25" fill="url(#paint1_linear_1_8536)"/>
<path d="M13.5 23.25C13.5 21.5931 14.8431 20.25 16.5 20.25H42C43.6569 20.25 45 21.5931 45 23.25V57.75C45 59.4069 43.6569 60.75 42 60.75H13.5V23.25Z" fill="black" fill-opacity="0.3"/>
<rect x="2.25" width="38.25" height="38.25" fill="#EB6C4D"/>
</g>
<rect y="15.75" width="40.5" height="40.5" rx="2" fill="url(#paint2_linear_1_8536)"/>
<path d="M29.25 32.5286C29.25 27.675 26.0548 24.75 20.9877 24.75H13.5V47.25H18.1475V40.4036H20.7941C25.5384 40.4036 29.25 37.7036 29.25 32.5286ZM24.5379 32.625C24.5379 34.8107 23.1501 36.225 20.8909 36.225H18.1475V28.9607H20.8586C23.1178 28.9607 24.5379 30.15 24.5379 32.625Z" fill="white"/>
<defs>
<linearGradient id="paint0_linear_1_8536" x1="6.75" y1="40.3448" x2="69.75" y2="40.3448" gradientUnits="userSpaceOnUse">
<stop stop-color="#A73A24"/>
<stop offset="1" stop-color="#F75936"/>
</linearGradient>
<linearGradient id="paint1_linear_1_8536" x1="70.875" y1="22.5" x2="40.5" y2="22.5" gradientUnits="userSpaceOnUse">
<stop stop-color="#FDB8A3"/>
<stop offset="1" stop-color="#F1876D"/>
</linearGradient>
<linearGradient id="paint2_linear_1_8536" x1="1.66123e-07" y1="38.7931" x2="40.5" y2="38.7931" gradientUnits="userSpaceOnUse">
<stop stop-color="#A73A24"/>
<stop offset="1" stop-color="#F75936"/>
</linearGradient>
</defs>
</svg>
